# Cube
#
o cube
v 0.500000 0.500000 -0.500000 	
v 0.500000 -0.500000 -0.500000 	
v -0.500000 -0.500000 -0.500000 	
v -0.500000 0.500000 -0.500000
v -0.500000 0.500000 0.500000 	
v -0.500000 -0.500000 0.500000 	
v 0.500000 -0.500000 0.500000 	
v 0.500000 0.500000 0.500000 
v 0.500000 0.500000 0.500000 	
v 0.500000 -0.500000 0.500000 	
v 0.500000 -0.500000 -0.500000 	
v 0.500000 0.500000 -0.500000
v -0.500000 0.500000 -0.500000
v -0.500000 -0.500000 -0.500000
v -0.500000 -0.500000 0.500000 	
v -0.500000 0.500000 0.500000
v 0.500000 0.500000 0.500000 
v 0.500000 0.500000 -0.500000 
v -0.500000 0.500000 -0.500000 
v -0.500000 0.500000 0.500000
v -0.500000 -0.500000 0.500000 
v -0.500000 -0.500000 -0.500000 
v 0.500000 -0.500000 -0.500000 
v 0.500000 -0.500000 0.500000
vt 0.000000 0.000000
vt 0.000000 1.000000
vt 1.000000 1.000000
vt 1.000000 0.000000
vn 0.000000 0.000000 1.000000
vn 0.000000 0.000000 -1.000000
vn 1.000000 0.000000 0.000000
vn -1.000000 0.000000 0.000000
vn 0.000000 1.000000 0.000000
vn 0.000000 -1.000000 0.000000
s 1
f 1/1/2 2/2/2 4/4/2
f 4/4/2 2/2/2 3/3/2
s 2
f 5/1/1 6/2/1 8/4/1
f 8/4/1 6/2/1 7/3/1
s 3
f 9/1/3 10/2/3 12/4/3
f 12/4/3 10/2/3 11/3/3
s 4
f 13/1/4 14/2/4 16/4/4
f 16/4/4 14/2/4 15/3/4
s 5
f 17/1/5 18/2/5 20/4/5
f 20/4/5 18/2/5 19/3/5
s 6
f 21/1/6 22/2/6 24/4/6
f 24/4/6 22/2/6 23/3/6